<svg xmlns="http://www.w3.org/2000/svg" viewBox="0 0 512 512" width="512" height="512">
  <defs>
    <linearGradient id="sbGrad" x1="0%" y1="0%" x2="100%" y2="100%">
      <stop offset="0%" stop-color="#DC2626"/>
      <stop offset="100%" stop-color="#991B1B"/>
    </linearGradient>
    <linearGradient id="goldGrad" x1="0%" y1="0%" x2="100%" y2="100%">
      <stop offset="0%" stop-color="#FDE047"/>
      <stop offset="100%" stop-color="#D97706"/>
    </linearGradient>
  </defs>
  <rect width="512" height="512" rx="112" fill="url(#sbGrad)"/>
  <!-- Bag handle -->
  <path d="M192 180 V130 C192 94.6 220.6 66 256 66 C291.4 66 320 94.6 320 130 V180" fill="none" stroke="#FFFFFF" stroke-width="28" stroke-linecap="round"/>
  <!-- Bag Body -->
  <path d="M128 176 L152 420 C154 440 170 456 190 456 H322 C342 456 358 440 360 420 L384 176 Z" fill="#FFFFFF"/>
  <!-- Mountain Silhouette inside bag (Himalaya Peak) -->
  <polygon points="256,220 330,340 182,340" fill="url(#sbGrad)"/>
  <polygon points="256,220 286,270 226,270" fill="#FFFFFF" opacity="0.9"/>
  <!-- Nepali Sun / Star Coin -->
  <circle cx="256" cy="380" r="28" fill="url(#goldGrad)"/>
  <path d="M256 360 L262 374 L276 380 L262 386 L256 400 L250 386 L236 380 L250 374 Z" fill="#FFFFFF"/>
</svg>
